<svg xmlns="http://www.w3.org/2000/svg" viewBox="0 0 1200 900">
  <rect width="1200" height="900" fill="#050505"/>
  <g fill="none" stroke="#ffffff" stroke-width="18" stroke-linejoin="round">
    <circle cx="820" cy="340" r="220"/>
    <path d="M820 120v440M600 340h440M665 185l310 310M975 185 665 495"/>
    <path d="M235 160v105l-105 190c-14 26 5 58 35 58h240c30 0 49-32 35-58L335 265V160"/>
    <path d="M225 160h120M210 360h150M190 405h48M180 445h38M170 485h30"/>
  </g>
  <path d="M153 430c58-34 110 27 165-5 33-19 70-13 96 6l26 57c14 26-5 58-35 58H165c-30 0-49-32-35-58z" fill="#00a7e1"/>
  <path d="m1080 120 14 38 40 2-32 24 10 39-32-23-34 23 12-39-32-24 40-2z" fill="#ffcc00"/>
  <path d="M70 610h150" stroke="#ff3b30" stroke-width="24"/>
  <path d="M220 610h150" stroke="#ff9500" stroke-width="24"/>
  <path d="M370 610h150" stroke="#ffcc00" stroke-width="24"/>
  <path d="M520 610h150" stroke="#34c759" stroke-width="24"/>
  <path d="M670 610h150" stroke="#00a7e1" stroke-width="24"/>
  <path d="M820 610h150" stroke="#5856d6" stroke-width="24"/>
  <path d="M970 610h160" stroke="#af52de" stroke-width="24"/>
  <text x="110" y="735" fill="#ffffff" font-family="Arial" font-size="78" font-weight="700">The Exploratorium</text>
  <text x="115" y="805" fill="#ffffff" font-family="Arial" font-size="29">INTERACTIVE EXHIBITS · REPAIR · NEW MEDIA</text>
</svg>
